<mxfile host="Electron" modified="2025-02-09T19:25:36.997Z" agent="Mozilla/5.0 (Windows NT 10.0; Win64; x64) AppleWebKit/537.36 (KHTML, like Gecko) draw.io/22.0.2 Chrome/114.0.5735.289 Electron/25.8.4 Safari/537.36" etag="TPT-TvLzG3JzTplMrWyg" version="22.0.2" type="device">
  <diagram id="R2lEEEUBdFMjLlhIrx00" name="Page-1">
    <mxGraphModel dx="1823" dy="866" grid="1" gridSize="10" guides="1" tooltips="1" connect="1" arrows="1" fold="1" page="1" pageScale="1" pageWidth="850" pageHeight="1100" math="0" shadow="0" extFonts="Permanent Marker^https://fonts.googleapis.com/css?family=Permanent+Marker">
      <root>
        <mxCell id="0" />
        <mxCell id="1" parent="0" />
        <mxCell id="C-vyLk0tnHw3VtMMgP7b-1" value="" style="edgeStyle=entityRelationEdgeStyle;endArrow=ERzeroToMany;startArrow=ERone;endFill=1;startFill=0;exitX=1;exitY=0.5;exitDx=0;exitDy=0;entryX=0;entryY=0.5;entryDx=0;entryDy=0;" parent="1" source="C-vyLk0tnHw3VtMMgP7b-23" target="C-vyLk0tnHw3VtMMgP7b-2" edge="1">
          <mxGeometry width="100" height="100" relative="1" as="geometry">
            <mxPoint x="340" y="290" as="sourcePoint" />
            <mxPoint x="410" y="185" as="targetPoint" />
          </mxGeometry>
        </mxCell>
        <mxCell id="C-vyLk0tnHw3VtMMgP7b-12" value="" style="edgeStyle=entityRelationEdgeStyle;endArrow=ERzeroToMany;startArrow=ERone;endFill=1;startFill=0;entryX=0;entryY=0.5;entryDx=0;entryDy=0;" parent="1" source="C-vyLk0tnHw3VtMMgP7b-3" target="C-vyLk0tnHw3VtMMgP7b-13" edge="1">
          <mxGeometry width="100" height="100" relative="1" as="geometry">
            <mxPoint x="400" y="180" as="sourcePoint" />
            <mxPoint x="630" y="360" as="targetPoint" />
          </mxGeometry>
        </mxCell>
        <mxCell id="C-vyLk0tnHw3VtMMgP7b-2" value="program" style="shape=table;startSize=30;container=1;collapsible=1;childLayout=tableLayout;fixedRows=1;rowLines=0;fontStyle=1;align=center;resizeLast=1;" parent="1" vertex="1" collapsed="1">
          <mxGeometry x="460" y="170" width="90" height="30" as="geometry">
            <mxRectangle x="460" y="170" width="250" height="100" as="alternateBounds" />
          </mxGeometry>
        </mxCell>
        <mxCell id="C-vyLk0tnHw3VtMMgP7b-3" value="" style="shape=partialRectangle;collapsible=0;dropTarget=0;pointerEvents=0;fillColor=none;points=[[0,0.5],[1,0.5]];portConstraint=eastwest;top=0;left=0;right=0;bottom=1;" parent="C-vyLk0tnHw3VtMMgP7b-2" vertex="1">
          <mxGeometry y="30" width="250" height="30" as="geometry" />
        </mxCell>
        <mxCell id="C-vyLk0tnHw3VtMMgP7b-4" value="PK" style="shape=partialRectangle;overflow=hidden;connectable=0;fillColor=none;top=0;left=0;bottom=0;right=0;fontStyle=1;" parent="C-vyLk0tnHw3VtMMgP7b-3" vertex="1">
          <mxGeometry width="30" height="30" as="geometry">
            <mxRectangle width="30" height="30" as="alternateBounds" />
          </mxGeometry>
        </mxCell>
        <mxCell id="C-vyLk0tnHw3VtMMgP7b-5" value="programID" style="shape=partialRectangle;overflow=hidden;connectable=0;fillColor=none;top=0;left=0;bottom=0;right=0;align=left;spacingLeft=6;fontStyle=5;" parent="C-vyLk0tnHw3VtMMgP7b-3" vertex="1">
          <mxGeometry x="30" width="220" height="30" as="geometry">
            <mxRectangle width="220" height="30" as="alternateBounds" />
          </mxGeometry>
        </mxCell>
        <mxCell id="C-vyLk0tnHw3VtMMgP7b-6" value="" style="shape=partialRectangle;collapsible=0;dropTarget=0;pointerEvents=0;fillColor=none;points=[[0,0.5],[1,0.5]];portConstraint=eastwest;top=0;left=0;right=0;bottom=0;" parent="C-vyLk0tnHw3VtMMgP7b-2" vertex="1">
          <mxGeometry y="60" width="250" height="30" as="geometry" />
        </mxCell>
        <mxCell id="C-vyLk0tnHw3VtMMgP7b-7" value="" style="shape=partialRectangle;overflow=hidden;connectable=0;fillColor=none;top=0;left=0;bottom=0;right=0;" parent="C-vyLk0tnHw3VtMMgP7b-6" vertex="1">
          <mxGeometry width="30" height="30" as="geometry">
            <mxRectangle width="30" height="30" as="alternateBounds" />
          </mxGeometry>
        </mxCell>
        <mxCell id="C-vyLk0tnHw3VtMMgP7b-8" value="season" style="shape=partialRectangle;overflow=hidden;connectable=0;fillColor=none;top=0;left=0;bottom=0;right=0;align=left;spacingLeft=6;" parent="C-vyLk0tnHw3VtMMgP7b-6" vertex="1">
          <mxGeometry x="30" width="220" height="30" as="geometry">
            <mxRectangle width="220" height="30" as="alternateBounds" />
          </mxGeometry>
        </mxCell>
        <mxCell id="C-vyLk0tnHw3VtMMgP7b-13" value="concert" style="shape=table;startSize=30;container=1;collapsible=1;childLayout=tableLayout;fixedRows=1;rowLines=0;fontStyle=1;align=center;resizeLast=1;" parent="1" vertex="1" collapsed="1">
          <mxGeometry x="630" y="260" width="70" height="30" as="geometry">
            <mxRectangle x="610" y="270" width="250" height="220" as="alternateBounds" />
          </mxGeometry>
        </mxCell>
        <mxCell id="C-vyLk0tnHw3VtMMgP7b-14" value="" style="shape=partialRectangle;collapsible=0;dropTarget=0;pointerEvents=0;fillColor=none;points=[[0,0.5],[1,0.5]];portConstraint=eastwest;top=0;left=0;right=0;bottom=1;" parent="C-vyLk0tnHw3VtMMgP7b-13" vertex="1">
          <mxGeometry y="30" width="250" height="30" as="geometry" />
        </mxCell>
        <mxCell id="C-vyLk0tnHw3VtMMgP7b-15" value="PK" style="shape=partialRectangle;overflow=hidden;connectable=0;fillColor=none;top=0;left=0;bottom=0;right=0;fontStyle=1;" parent="C-vyLk0tnHw3VtMMgP7b-14" vertex="1">
          <mxGeometry width="30" height="30" as="geometry">
            <mxRectangle width="30" height="30" as="alternateBounds" />
          </mxGeometry>
        </mxCell>
        <mxCell id="C-vyLk0tnHw3VtMMgP7b-16" value="concertID" style="shape=partialRectangle;overflow=hidden;connectable=0;fillColor=none;top=0;left=0;bottom=0;right=0;align=left;spacingLeft=6;fontStyle=5;" parent="C-vyLk0tnHw3VtMMgP7b-14" vertex="1">
          <mxGeometry x="30" width="220" height="30" as="geometry">
            <mxRectangle width="220" height="30" as="alternateBounds" />
          </mxGeometry>
        </mxCell>
        <mxCell id="C-vyLk0tnHw3VtMMgP7b-17" value="" style="shape=partialRectangle;collapsible=0;dropTarget=0;pointerEvents=0;fillColor=none;points=[[0,0.5],[1,0.5]];portConstraint=eastwest;top=0;left=0;right=0;bottom=0;" parent="C-vyLk0tnHw3VtMMgP7b-13" vertex="1">
          <mxGeometry y="60" width="250" height="30" as="geometry" />
        </mxCell>
        <mxCell id="C-vyLk0tnHw3VtMMgP7b-18" value="" style="shape=partialRectangle;overflow=hidden;connectable=0;fillColor=none;top=0;left=0;bottom=0;right=0;" parent="C-vyLk0tnHw3VtMMgP7b-17" vertex="1">
          <mxGeometry width="30" height="30" as="geometry">
            <mxRectangle width="30" height="30" as="alternateBounds" />
          </mxGeometry>
        </mxCell>
        <mxCell id="C-vyLk0tnHw3VtMMgP7b-19" value="Date" style="shape=partialRectangle;overflow=hidden;connectable=0;fillColor=none;top=0;left=0;bottom=0;right=0;align=left;spacingLeft=6;" parent="C-vyLk0tnHw3VtMMgP7b-17" vertex="1">
          <mxGeometry x="30" width="220" height="30" as="geometry">
            <mxRectangle width="220" height="30" as="alternateBounds" />
          </mxGeometry>
        </mxCell>
        <mxCell id="C-vyLk0tnHw3VtMMgP7b-20" value="" style="shape=partialRectangle;collapsible=0;dropTarget=0;pointerEvents=0;fillColor=none;points=[[0,0.5],[1,0.5]];portConstraint=eastwest;top=0;left=0;right=0;bottom=0;" parent="C-vyLk0tnHw3VtMMgP7b-13" vertex="1">
          <mxGeometry y="90" width="250" height="30" as="geometry" />
        </mxCell>
        <mxCell id="C-vyLk0tnHw3VtMMgP7b-21" value="" style="shape=partialRectangle;overflow=hidden;connectable=0;fillColor=none;top=0;left=0;bottom=0;right=0;" parent="C-vyLk0tnHw3VtMMgP7b-20" vertex="1">
          <mxGeometry width="30" height="30" as="geometry">
            <mxRectangle width="30" height="30" as="alternateBounds" />
          </mxGeometry>
        </mxCell>
        <mxCell id="C-vyLk0tnHw3VtMMgP7b-22" value="eventType" style="shape=partialRectangle;overflow=hidden;connectable=0;fillColor=none;top=0;left=0;bottom=0;right=0;align=left;spacingLeft=6;" parent="C-vyLk0tnHw3VtMMgP7b-20" vertex="1">
          <mxGeometry x="30" width="220" height="30" as="geometry">
            <mxRectangle width="220" height="30" as="alternateBounds" />
          </mxGeometry>
        </mxCell>
        <mxCell id="IQqjwDVJrQSwNHj6loWa-25" value="" style="shape=partialRectangle;collapsible=0;dropTarget=0;pointerEvents=0;fillColor=none;points=[[0,0.5],[1,0.5]];portConstraint=eastwest;top=0;left=0;right=0;bottom=0;" vertex="1" parent="C-vyLk0tnHw3VtMMgP7b-13">
          <mxGeometry y="120" width="250" height="30" as="geometry" />
        </mxCell>
        <mxCell id="IQqjwDVJrQSwNHj6loWa-26" value="" style="shape=partialRectangle;overflow=hidden;connectable=0;fillColor=none;top=0;left=0;bottom=0;right=0;" vertex="1" parent="IQqjwDVJrQSwNHj6loWa-25">
          <mxGeometry width="30" height="30" as="geometry">
            <mxRectangle width="30" height="30" as="alternateBounds" />
          </mxGeometry>
        </mxCell>
        <mxCell id="IQqjwDVJrQSwNHj6loWa-27" value="Venue" style="shape=partialRectangle;overflow=hidden;connectable=0;fillColor=none;top=0;left=0;bottom=0;right=0;align=left;spacingLeft=6;" vertex="1" parent="IQqjwDVJrQSwNHj6loWa-25">
          <mxGeometry x="30" width="220" height="30" as="geometry">
            <mxRectangle width="220" height="30" as="alternateBounds" />
          </mxGeometry>
        </mxCell>
        <mxCell id="IQqjwDVJrQSwNHj6loWa-28" value="" style="shape=partialRectangle;collapsible=0;dropTarget=0;pointerEvents=0;fillColor=none;points=[[0,0.5],[1,0.5]];portConstraint=eastwest;top=0;left=0;right=0;bottom=0;" vertex="1" parent="C-vyLk0tnHw3VtMMgP7b-13">
          <mxGeometry y="150" width="250" height="30" as="geometry" />
        </mxCell>
        <mxCell id="IQqjwDVJrQSwNHj6loWa-29" value="" style="shape=partialRectangle;overflow=hidden;connectable=0;fillColor=none;top=0;left=0;bottom=0;right=0;" vertex="1" parent="IQqjwDVJrQSwNHj6loWa-28">
          <mxGeometry width="30" height="30" as="geometry">
            <mxRectangle width="30" height="30" as="alternateBounds" />
          </mxGeometry>
        </mxCell>
        <mxCell id="IQqjwDVJrQSwNHj6loWa-30" value="Location" style="shape=partialRectangle;overflow=hidden;connectable=0;fillColor=none;top=0;left=0;bottom=0;right=0;align=left;spacingLeft=6;" vertex="1" parent="IQqjwDVJrQSwNHj6loWa-28">
          <mxGeometry x="30" width="220" height="30" as="geometry">
            <mxRectangle width="220" height="30" as="alternateBounds" />
          </mxGeometry>
        </mxCell>
        <mxCell id="IQqjwDVJrQSwNHj6loWa-31" value="" style="shape=partialRectangle;collapsible=0;dropTarget=0;pointerEvents=0;fillColor=none;points=[[0,0.5],[1,0.5]];portConstraint=eastwest;top=0;left=0;right=0;bottom=0;" vertex="1" parent="C-vyLk0tnHw3VtMMgP7b-13">
          <mxGeometry y="180" width="250" height="30" as="geometry" />
        </mxCell>
        <mxCell id="IQqjwDVJrQSwNHj6loWa-32" value="" style="shape=partialRectangle;overflow=hidden;connectable=0;fillColor=none;top=0;left=0;bottom=0;right=0;" vertex="1" parent="IQqjwDVJrQSwNHj6loWa-31">
          <mxGeometry width="30" height="30" as="geometry">
            <mxRectangle width="30" height="30" as="alternateBounds" />
          </mxGeometry>
        </mxCell>
        <mxCell id="IQqjwDVJrQSwNHj6loWa-33" value="Time" style="shape=partialRectangle;overflow=hidden;connectable=0;fillColor=none;top=0;left=0;bottom=0;right=0;align=left;spacingLeft=6;" vertex="1" parent="IQqjwDVJrQSwNHj6loWa-31">
          <mxGeometry x="30" width="220" height="30" as="geometry">
            <mxRectangle width="220" height="30" as="alternateBounds" />
          </mxGeometry>
        </mxCell>
        <mxCell id="C-vyLk0tnHw3VtMMgP7b-23" value="orchestra" style="shape=table;startSize=30;container=1;collapsible=1;childLayout=tableLayout;fixedRows=1;rowLines=0;fontStyle=1;align=center;resizeLast=1;" parent="1" vertex="1" collapsed="1">
          <mxGeometry x="250" y="270" width="90" height="30" as="geometry">
            <mxRectangle x="250" y="270" width="250" height="130" as="alternateBounds" />
          </mxGeometry>
        </mxCell>
        <mxCell id="C-vyLk0tnHw3VtMMgP7b-24" value="" style="shape=partialRectangle;collapsible=0;dropTarget=0;pointerEvents=0;fillColor=none;points=[[0,0.5],[1,0.5]];portConstraint=eastwest;top=0;left=0;right=0;bottom=1;" parent="C-vyLk0tnHw3VtMMgP7b-23" vertex="1">
          <mxGeometry y="30" width="250" height="30" as="geometry" />
        </mxCell>
        <mxCell id="C-vyLk0tnHw3VtMMgP7b-25" value="PK" style="shape=partialRectangle;overflow=hidden;connectable=0;fillColor=none;top=0;left=0;bottom=0;right=0;fontStyle=1;" parent="C-vyLk0tnHw3VtMMgP7b-24" vertex="1">
          <mxGeometry width="30" height="30" as="geometry">
            <mxRectangle width="30" height="30" as="alternateBounds" />
          </mxGeometry>
        </mxCell>
        <mxCell id="C-vyLk0tnHw3VtMMgP7b-26" value="orchestraID" style="shape=partialRectangle;overflow=hidden;connectable=0;fillColor=none;top=0;left=0;bottom=0;right=0;align=left;spacingLeft=6;fontStyle=5;" parent="C-vyLk0tnHw3VtMMgP7b-24" vertex="1">
          <mxGeometry x="30" width="220" height="30" as="geometry">
            <mxRectangle width="220" height="30" as="alternateBounds" />
          </mxGeometry>
        </mxCell>
        <mxCell id="C-vyLk0tnHw3VtMMgP7b-27" value="" style="shape=partialRectangle;collapsible=0;dropTarget=0;pointerEvents=0;fillColor=none;points=[[0,0.5],[1,0.5]];portConstraint=eastwest;top=0;left=0;right=0;bottom=0;" parent="C-vyLk0tnHw3VtMMgP7b-23" vertex="1">
          <mxGeometry y="60" width="250" height="30" as="geometry" />
        </mxCell>
        <mxCell id="C-vyLk0tnHw3VtMMgP7b-28" value="" style="shape=partialRectangle;overflow=hidden;connectable=0;fillColor=none;top=0;left=0;bottom=0;right=0;" parent="C-vyLk0tnHw3VtMMgP7b-27" vertex="1">
          <mxGeometry width="30" height="30" as="geometry">
            <mxRectangle width="30" height="30" as="alternateBounds" />
          </mxGeometry>
        </mxCell>
        <mxCell id="C-vyLk0tnHw3VtMMgP7b-29" value="orchestraName" style="shape=partialRectangle;overflow=hidden;connectable=0;fillColor=none;top=0;left=0;bottom=0;right=0;align=left;spacingLeft=6;" parent="C-vyLk0tnHw3VtMMgP7b-27" vertex="1">
          <mxGeometry x="30" width="220" height="30" as="geometry">
            <mxRectangle width="220" height="30" as="alternateBounds" />
          </mxGeometry>
        </mxCell>
        <mxCell id="IQqjwDVJrQSwNHj6loWa-18" value="" style="shape=partialRectangle;collapsible=0;dropTarget=0;pointerEvents=0;fillColor=none;points=[[0,0.5],[1,0.5]];portConstraint=eastwest;top=0;left=0;right=0;bottom=0;" vertex="1" parent="C-vyLk0tnHw3VtMMgP7b-23">
          <mxGeometry y="90" width="250" height="30" as="geometry" />
        </mxCell>
        <mxCell id="IQqjwDVJrQSwNHj6loWa-19" value="" style="shape=partialRectangle;overflow=hidden;connectable=0;fillColor=none;top=0;left=0;bottom=0;right=0;" vertex="1" parent="IQqjwDVJrQSwNHj6loWa-18">
          <mxGeometry width="30" height="30" as="geometry">
            <mxRectangle width="30" height="30" as="alternateBounds" />
          </mxGeometry>
        </mxCell>
        <mxCell id="IQqjwDVJrQSwNHj6loWa-20" value="orchestraHead" style="shape=partialRectangle;overflow=hidden;connectable=0;fillColor=none;top=0;left=0;bottom=0;right=0;align=left;spacingLeft=6;" vertex="1" parent="IQqjwDVJrQSwNHj6loWa-18">
          <mxGeometry x="30" width="220" height="30" as="geometry">
            <mxRectangle width="220" height="30" as="alternateBounds" />
          </mxGeometry>
        </mxCell>
        <mxCell id="IQqjwDVJrQSwNHj6loWa-13" value="&lt;u&gt;programID&lt;/u&gt;" style="ellipse;whiteSpace=wrap;html=1;" vertex="1" parent="1">
          <mxGeometry x="370" y="90" width="70" height="30" as="geometry" />
        </mxCell>
        <mxCell id="IQqjwDVJrQSwNHj6loWa-14" value="" style="endArrow=none;html=1;rounded=0;entryX=1;entryY=1;entryDx=0;entryDy=0;exitX=0.25;exitY=0;exitDx=0;exitDy=0;" edge="1" parent="1" source="C-vyLk0tnHw3VtMMgP7b-2" target="IQqjwDVJrQSwNHj6loWa-13">
          <mxGeometry width="50" height="50" relative="1" as="geometry">
            <mxPoint x="410" y="330" as="sourcePoint" />
            <mxPoint x="460" y="280" as="targetPoint" />
          </mxGeometry>
        </mxCell>
        <mxCell id="IQqjwDVJrQSwNHj6loWa-15" value="season" style="ellipse;whiteSpace=wrap;html=1;" vertex="1" parent="1">
          <mxGeometry x="500" y="90" width="70" height="30" as="geometry" />
        </mxCell>
        <mxCell id="IQqjwDVJrQSwNHj6loWa-16" value="" style="endArrow=none;html=1;rounded=0;entryX=0;entryY=1;entryDx=0;entryDy=0;exitX=0.5;exitY=0;exitDx=0;exitDy=0;" edge="1" parent="1" source="C-vyLk0tnHw3VtMMgP7b-2" target="IQqjwDVJrQSwNHj6loWa-15">
          <mxGeometry width="50" height="50" relative="1" as="geometry">
            <mxPoint x="493" y="180" as="sourcePoint" />
            <mxPoint x="440" y="125" as="targetPoint" />
          </mxGeometry>
        </mxCell>
        <mxCell id="IQqjwDVJrQSwNHj6loWa-17" value="" style="edgeStyle=entityRelationEdgeStyle;endArrow=ERzeroToMany;startArrow=ERone;endFill=1;startFill=0;entryX=1;entryY=0.5;entryDx=0;entryDy=0;exitX=0;exitY=0.5;exitDx=0;exitDy=0;" edge="1" parent="1" source="C-vyLk0tnHw3VtMMgP7b-2" target="C-vyLk0tnHw3VtMMgP7b-23">
          <mxGeometry width="100" height="100" relative="1" as="geometry">
            <mxPoint x="440" y="240" as="sourcePoint" />
            <mxPoint x="640" y="370" as="targetPoint" />
          </mxGeometry>
        </mxCell>
        <mxCell id="IQqjwDVJrQSwNHj6loWa-21" value="&lt;u&gt;orchestraID&lt;/u&gt;" style="ellipse;whiteSpace=wrap;html=1;" vertex="1" parent="1">
          <mxGeometry x="150" y="180" width="70" height="30" as="geometry" />
        </mxCell>
        <mxCell id="IQqjwDVJrQSwNHj6loWa-22" value="" style="endArrow=none;html=1;rounded=0;entryX=1;entryY=1;entryDx=0;entryDy=0;exitX=0.25;exitY=0;exitDx=0;exitDy=0;" edge="1" parent="1" target="IQqjwDVJrQSwNHj6loWa-21" source="C-vyLk0tnHw3VtMMgP7b-23">
          <mxGeometry width="50" height="50" relative="1" as="geometry">
            <mxPoint x="263" y="260" as="sourcePoint" />
            <mxPoint x="240" y="370" as="targetPoint" />
          </mxGeometry>
        </mxCell>
        <mxCell id="IQqjwDVJrQSwNHj6loWa-23" value="&lt;font style=&quot;font-size: 10px;&quot;&gt;orchestraName&lt;/font&gt;" style="ellipse;whiteSpace=wrap;html=1;" vertex="1" parent="1">
          <mxGeometry x="280" y="180" width="70" height="30" as="geometry" />
        </mxCell>
        <mxCell id="IQqjwDVJrQSwNHj6loWa-24" value="" style="endArrow=none;html=1;rounded=0;entryX=0.5;entryY=1;entryDx=0;entryDy=0;exitX=0.5;exitY=0;exitDx=0;exitDy=0;" edge="1" parent="1" target="IQqjwDVJrQSwNHj6loWa-23" source="C-vyLk0tnHw3VtMMgP7b-23">
          <mxGeometry width="50" height="50" relative="1" as="geometry">
            <mxPoint x="285" y="260" as="sourcePoint" />
            <mxPoint x="220" y="215" as="targetPoint" />
          </mxGeometry>
        </mxCell>
        <mxCell id="IQqjwDVJrQSwNHj6loWa-34" value="date" style="ellipse;whiteSpace=wrap;html=1;" vertex="1" parent="1">
          <mxGeometry x="700" y="190" width="70" height="30" as="geometry" />
        </mxCell>
        <mxCell id="IQqjwDVJrQSwNHj6loWa-35" value="" style="endArrow=none;html=1;rounded=0;entryX=0;entryY=1;entryDx=0;entryDy=0;exitX=0.75;exitY=0;exitDx=0;exitDy=0;" edge="1" parent="1" target="IQqjwDVJrQSwNHj6loWa-34" source="C-vyLk0tnHw3VtMMgP7b-13">
          <mxGeometry width="50" height="50" relative="1" as="geometry">
            <mxPoint x="675" y="260" as="sourcePoint" />
            <mxPoint x="610" y="215" as="targetPoint" />
          </mxGeometry>
        </mxCell>
        <mxCell id="IQqjwDVJrQSwNHj6loWa-36" value="&lt;u&gt;concertID&lt;/u&gt;" style="ellipse;whiteSpace=wrap;html=1;" vertex="1" parent="1">
          <mxGeometry x="590" y="170" width="70" height="30" as="geometry" />
        </mxCell>
        <mxCell id="IQqjwDVJrQSwNHj6loWa-37" value="" style="endArrow=none;html=1;rounded=0;entryX=0.5;entryY=1;entryDx=0;entryDy=0;exitX=0.25;exitY=0;exitDx=0;exitDy=0;" edge="1" parent="1" target="IQqjwDVJrQSwNHj6loWa-36" source="C-vyLk0tnHw3VtMMgP7b-13">
          <mxGeometry width="50" height="50" relative="1" as="geometry">
            <mxPoint x="607.5" y="270" as="sourcePoint" />
            <mxPoint x="530" y="205" as="targetPoint" />
          </mxGeometry>
        </mxCell>
        <mxCell id="IQqjwDVJrQSwNHj6loWa-38" value="eventType" style="ellipse;whiteSpace=wrap;html=1;" vertex="1" parent="1">
          <mxGeometry x="660" y="160" width="70" height="30" as="geometry" />
        </mxCell>
        <mxCell id="IQqjwDVJrQSwNHj6loWa-39" value="" style="endArrow=none;html=1;rounded=0;entryX=0;entryY=1;entryDx=0;entryDy=0;exitX=0.5;exitY=0;exitDx=0;exitDy=0;" edge="1" parent="1" target="IQqjwDVJrQSwNHj6loWa-38" source="C-vyLk0tnHw3VtMMgP7b-13">
          <mxGeometry width="50" height="50" relative="1" as="geometry">
            <mxPoint x="673" y="280" as="sourcePoint" />
            <mxPoint x="620" y="225" as="targetPoint" />
          </mxGeometry>
        </mxCell>
        <mxCell id="IQqjwDVJrQSwNHj6loWa-40" value="venue" style="ellipse;whiteSpace=wrap;html=1;" vertex="1" parent="1">
          <mxGeometry x="720" y="230" width="70" height="30" as="geometry" />
        </mxCell>
        <mxCell id="IQqjwDVJrQSwNHj6loWa-41" value="" style="endArrow=none;html=1;rounded=0;entryX=0;entryY=1;entryDx=0;entryDy=0;exitX=1;exitY=0.5;exitDx=0;exitDy=0;" edge="1" parent="1" target="IQqjwDVJrQSwNHj6loWa-40" source="C-vyLk0tnHw3VtMMgP7b-13">
          <mxGeometry width="50" height="50" relative="1" as="geometry">
            <mxPoint x="683" y="310" as="sourcePoint" />
            <mxPoint x="630" y="255" as="targetPoint" />
          </mxGeometry>
        </mxCell>
        <mxCell id="IQqjwDVJrQSwNHj6loWa-42" value="location" style="ellipse;whiteSpace=wrap;html=1;" vertex="1" parent="1">
          <mxGeometry x="730" y="270" width="70" height="30" as="geometry" />
        </mxCell>
        <mxCell id="IQqjwDVJrQSwNHj6loWa-43" value="" style="endArrow=none;html=1;rounded=0;entryX=0;entryY=0.5;entryDx=0;entryDy=0;exitX=1;exitY=0.75;exitDx=0;exitDy=0;" edge="1" parent="1" target="IQqjwDVJrQSwNHj6loWa-42" source="C-vyLk0tnHw3VtMMgP7b-13">
          <mxGeometry width="50" height="50" relative="1" as="geometry">
            <mxPoint x="693" y="300" as="sourcePoint" />
            <mxPoint x="640" y="245" as="targetPoint" />
          </mxGeometry>
        </mxCell>
        <mxCell id="IQqjwDVJrQSwNHj6loWa-44" value="time" style="ellipse;whiteSpace=wrap;html=1;" vertex="1" parent="1">
          <mxGeometry x="730" y="310" width="70" height="30" as="geometry" />
        </mxCell>
        <mxCell id="IQqjwDVJrQSwNHj6loWa-45" value="" style="endArrow=none;html=1;rounded=0;entryX=0;entryY=0;entryDx=0;entryDy=0;exitX=1;exitY=1;exitDx=0;exitDy=0;" edge="1" parent="1" source="C-vyLk0tnHw3VtMMgP7b-13" target="IQqjwDVJrQSwNHj6loWa-44">
          <mxGeometry width="50" height="50" relative="1" as="geometry">
            <mxPoint x="700" y="303" as="sourcePoint" />
            <mxPoint x="740" y="295" as="targetPoint" />
          </mxGeometry>
        </mxCell>
        <mxCell id="IQqjwDVJrQSwNHj6loWa-102" value="" style="edgeStyle=entityRelationEdgeStyle;endArrow=ERzeroToMany;startArrow=ERone;endFill=1;startFill=0;exitX=0;exitY=0.75;exitDx=0;exitDy=0;entryX=1;entryY=0.5;entryDx=0;entryDy=0;" edge="1" parent="1" source="IQqjwDVJrQSwNHj6loWa-1" target="IQqjwDVJrQSwNHj6loWa-154">
          <mxGeometry width="100" height="100" relative="1" as="geometry">
            <mxPoint x="670" y="430" as="sourcePoint" />
            <mxPoint x="610" y="475" as="targetPoint" />
            <Array as="points">
              <mxPoint x="870" y="370" />
              <mxPoint x="860" y="370" />
            </Array>
          </mxGeometry>
        </mxCell>
        <mxCell id="IQqjwDVJrQSwNHj6loWa-103" value="" style="edgeStyle=entityRelationEdgeStyle;endArrow=ERzeroToMany;startArrow=ERone;endFill=1;startFill=0;exitX=0;exitY=1;exitDx=0;exitDy=0;entryX=0;entryY=0.25;entryDx=0;entryDy=0;" edge="1" parent="1" source="C-vyLk0tnHw3VtMMgP7b-13" target="IQqjwDVJrQSwNHj6loWa-1">
          <mxGeometry width="100" height="100" relative="1" as="geometry">
            <mxPoint x="560" y="195" as="sourcePoint" />
            <mxPoint x="570" y="370" as="targetPoint" />
            <Array as="points">
              <mxPoint x="620" y="310" />
              <mxPoint x="580" y="310" />
            </Array>
          </mxGeometry>
        </mxCell>
        <mxCell id="IQqjwDVJrQSwNHj6loWa-1" value="works" style="shape=table;startSize=30;container=1;collapsible=1;childLayout=tableLayout;fixedRows=1;rowLines=0;fontStyle=1;align=center;resizeLast=1;" vertex="1" collapsed="1" parent="1">
          <mxGeometry x="660" y="350" width="80" height="30" as="geometry">
            <mxRectangle x="680" y="380" width="250" height="190" as="alternateBounds" />
          </mxGeometry>
        </mxCell>
        <mxCell id="IQqjwDVJrQSwNHj6loWa-2" value="" style="shape=partialRectangle;collapsible=0;dropTarget=0;pointerEvents=0;fillColor=none;points=[[0,0.5],[1,0.5]];portConstraint=eastwest;top=0;left=0;right=0;bottom=1;" vertex="1" parent="IQqjwDVJrQSwNHj6loWa-1">
          <mxGeometry y="30" width="250" height="30" as="geometry" />
        </mxCell>
        <mxCell id="IQqjwDVJrQSwNHj6loWa-3" value="PK" style="shape=partialRectangle;overflow=hidden;connectable=0;fillColor=none;top=0;left=0;bottom=0;right=0;fontStyle=1;" vertex="1" parent="IQqjwDVJrQSwNHj6loWa-2">
          <mxGeometry width="30" height="30" as="geometry">
            <mxRectangle width="30" height="30" as="alternateBounds" />
          </mxGeometry>
        </mxCell>
        <mxCell id="IQqjwDVJrQSwNHj6loWa-4" value="workID" style="shape=partialRectangle;overflow=hidden;connectable=0;fillColor=none;top=0;left=0;bottom=0;right=0;align=left;spacingLeft=6;fontStyle=5;" vertex="1" parent="IQqjwDVJrQSwNHj6loWa-2">
          <mxGeometry x="30" width="220" height="30" as="geometry">
            <mxRectangle width="220" height="30" as="alternateBounds" />
          </mxGeometry>
        </mxCell>
        <mxCell id="IQqjwDVJrQSwNHj6loWa-5" value="" style="shape=partialRectangle;collapsible=0;dropTarget=0;pointerEvents=0;fillColor=none;points=[[0,0.5],[1,0.5]];portConstraint=eastwest;top=0;left=0;right=0;bottom=0;" vertex="1" parent="IQqjwDVJrQSwNHj6loWa-1">
          <mxGeometry y="60" width="250" height="30" as="geometry" />
        </mxCell>
        <mxCell id="IQqjwDVJrQSwNHj6loWa-6" value="" style="shape=partialRectangle;overflow=hidden;connectable=0;fillColor=none;top=0;left=0;bottom=0;right=0;" vertex="1" parent="IQqjwDVJrQSwNHj6loWa-5">
          <mxGeometry width="30" height="30" as="geometry">
            <mxRectangle width="30" height="30" as="alternateBounds" />
          </mxGeometry>
        </mxCell>
        <mxCell id="IQqjwDVJrQSwNHj6loWa-7" value="workTitle" style="shape=partialRectangle;overflow=hidden;connectable=0;fillColor=none;top=0;left=0;bottom=0;right=0;align=left;spacingLeft=6;" vertex="1" parent="IQqjwDVJrQSwNHj6loWa-5">
          <mxGeometry x="30" width="220" height="30" as="geometry">
            <mxRectangle width="220" height="30" as="alternateBounds" />
          </mxGeometry>
        </mxCell>
        <mxCell id="IQqjwDVJrQSwNHj6loWa-8" value="" style="shape=partialRectangle;collapsible=0;dropTarget=0;pointerEvents=0;fillColor=none;points=[[0,0.5],[1,0.5]];portConstraint=eastwest;top=0;left=0;right=0;bottom=0;" vertex="1" parent="IQqjwDVJrQSwNHj6loWa-1">
          <mxGeometry y="90" width="250" height="30" as="geometry" />
        </mxCell>
        <mxCell id="IQqjwDVJrQSwNHj6loWa-9" value="" style="shape=partialRectangle;overflow=hidden;connectable=0;fillColor=none;top=0;left=0;bottom=0;right=0;" vertex="1" parent="IQqjwDVJrQSwNHj6loWa-8">
          <mxGeometry width="30" height="30" as="geometry">
            <mxRectangle width="30" height="30" as="alternateBounds" />
          </mxGeometry>
        </mxCell>
        <mxCell id="IQqjwDVJrQSwNHj6loWa-10" value="conductorID" style="shape=partialRectangle;overflow=hidden;connectable=0;fillColor=none;top=0;left=0;bottom=0;right=0;align=left;spacingLeft=6;" vertex="1" parent="IQqjwDVJrQSwNHj6loWa-8">
          <mxGeometry x="30" width="220" height="30" as="geometry">
            <mxRectangle width="220" height="30" as="alternateBounds" />
          </mxGeometry>
        </mxCell>
        <mxCell id="IQqjwDVJrQSwNHj6loWa-49" value="" style="shape=partialRectangle;collapsible=0;dropTarget=0;pointerEvents=0;fillColor=none;points=[[0,0.5],[1,0.5]];portConstraint=eastwest;top=0;left=0;right=0;bottom=0;" vertex="1" parent="IQqjwDVJrQSwNHj6loWa-1">
          <mxGeometry y="120" width="250" height="30" as="geometry" />
        </mxCell>
        <mxCell id="IQqjwDVJrQSwNHj6loWa-50" value="" style="shape=partialRectangle;overflow=hidden;connectable=0;fillColor=none;top=0;left=0;bottom=0;right=0;" vertex="1" parent="IQqjwDVJrQSwNHj6loWa-49">
          <mxGeometry width="30" height="30" as="geometry">
            <mxRectangle width="30" height="30" as="alternateBounds" />
          </mxGeometry>
        </mxCell>
        <mxCell id="IQqjwDVJrQSwNHj6loWa-51" value="conductorName" style="shape=partialRectangle;overflow=hidden;connectable=0;fillColor=none;top=0;left=0;bottom=0;right=0;align=left;spacingLeft=6;" vertex="1" parent="IQqjwDVJrQSwNHj6loWa-49">
          <mxGeometry x="30" width="220" height="30" as="geometry">
            <mxRectangle width="220" height="30" as="alternateBounds" />
          </mxGeometry>
        </mxCell>
        <mxCell id="IQqjwDVJrQSwNHj6loWa-104" value="" style="shape=partialRectangle;collapsible=0;dropTarget=0;pointerEvents=0;fillColor=none;points=[[0,0.5],[1,0.5]];portConstraint=eastwest;top=0;left=0;right=0;bottom=0;" vertex="1" parent="IQqjwDVJrQSwNHj6loWa-1">
          <mxGeometry y="150" width="250" height="30" as="geometry" />
        </mxCell>
        <mxCell id="IQqjwDVJrQSwNHj6loWa-105" value="" style="shape=partialRectangle;overflow=hidden;connectable=0;fillColor=none;top=0;left=0;bottom=0;right=0;" vertex="1" parent="IQqjwDVJrQSwNHj6loWa-104">
          <mxGeometry width="30" height="30" as="geometry">
            <mxRectangle width="30" height="30" as="alternateBounds" />
          </mxGeometry>
        </mxCell>
        <mxCell id="IQqjwDVJrQSwNHj6loWa-106" value="composerName" style="shape=partialRectangle;overflow=hidden;connectable=0;fillColor=none;top=0;left=0;bottom=0;right=0;align=left;spacingLeft=6;" vertex="1" parent="IQqjwDVJrQSwNHj6loWa-104">
          <mxGeometry x="30" width="220" height="30" as="geometry">
            <mxRectangle width="220" height="30" as="alternateBounds" />
          </mxGeometry>
        </mxCell>
        <mxCell id="IQqjwDVJrQSwNHj6loWa-107" value="&lt;u&gt;workID&lt;/u&gt;" style="ellipse;whiteSpace=wrap;html=1;" vertex="1" parent="1">
          <mxGeometry x="787" y="350" width="70" height="30" as="geometry" />
        </mxCell>
        <mxCell id="IQqjwDVJrQSwNHj6loWa-108" value="" style="endArrow=none;html=1;rounded=0;entryX=0;entryY=1;entryDx=0;entryDy=0;exitX=1;exitY=0.25;exitDx=0;exitDy=0;" edge="1" parent="1" target="IQqjwDVJrQSwNHj6loWa-107" source="IQqjwDVJrQSwNHj6loWa-1">
          <mxGeometry width="50" height="50" relative="1" as="geometry">
            <mxPoint x="770" y="420" as="sourcePoint" />
            <mxPoint x="697" y="375" as="targetPoint" />
          </mxGeometry>
        </mxCell>
        <mxCell id="IQqjwDVJrQSwNHj6loWa-109" value="workTitle" style="ellipse;whiteSpace=wrap;html=1;" vertex="1" parent="1">
          <mxGeometry x="807" y="390" width="70" height="30" as="geometry" />
        </mxCell>
        <mxCell id="IQqjwDVJrQSwNHj6loWa-110" value="" style="endArrow=none;html=1;rounded=0;entryX=-0.007;entryY=0.326;entryDx=0;entryDy=0;exitX=1;exitY=0.5;exitDx=0;exitDy=0;entryPerimeter=0;" edge="1" parent="1" target="IQqjwDVJrQSwNHj6loWa-109" source="IQqjwDVJrQSwNHj6loWa-1">
          <mxGeometry width="50" height="50" relative="1" as="geometry">
            <mxPoint x="787" y="435" as="sourcePoint" />
            <mxPoint x="717" y="415" as="targetPoint" />
          </mxGeometry>
        </mxCell>
        <mxCell id="IQqjwDVJrQSwNHj6loWa-111" value="conductorID" style="ellipse;whiteSpace=wrap;html=1;" vertex="1" parent="1">
          <mxGeometry x="817" y="420" width="70" height="30" as="geometry" />
        </mxCell>
        <mxCell id="IQqjwDVJrQSwNHj6loWa-112" value="" style="endArrow=none;html=1;rounded=0;entryX=0;entryY=0.5;entryDx=0;entryDy=0;exitX=1;exitY=0.75;exitDx=0;exitDy=0;" edge="1" parent="1" target="IQqjwDVJrQSwNHj6loWa-111" source="IQqjwDVJrQSwNHj6loWa-1">
          <mxGeometry width="50" height="50" relative="1" as="geometry">
            <mxPoint x="787" y="443" as="sourcePoint" />
            <mxPoint x="727" y="405" as="targetPoint" />
          </mxGeometry>
        </mxCell>
        <mxCell id="IQqjwDVJrQSwNHj6loWa-113" value="conductorName" style="ellipse;whiteSpace=wrap;html=1;" vertex="1" parent="1">
          <mxGeometry x="827" y="460" width="93" height="30" as="geometry" />
        </mxCell>
        <mxCell id="IQqjwDVJrQSwNHj6loWa-114" value="" style="endArrow=none;html=1;rounded=0;entryX=0;entryY=0;entryDx=0;entryDy=0;exitX=1;exitY=1;exitDx=0;exitDy=0;" edge="1" parent="1" target="IQqjwDVJrQSwNHj6loWa-113" source="IQqjwDVJrQSwNHj6loWa-1">
          <mxGeometry width="50" height="50" relative="1" as="geometry">
            <mxPoint x="787" y="450" as="sourcePoint" />
            <mxPoint x="827" y="455" as="targetPoint" />
          </mxGeometry>
        </mxCell>
        <mxCell id="IQqjwDVJrQSwNHj6loWa-115" value="composerName" style="ellipse;whiteSpace=wrap;html=1;" vertex="1" parent="1">
          <mxGeometry x="710" y="460" width="107" height="30" as="geometry" />
        </mxCell>
        <mxCell id="IQqjwDVJrQSwNHj6loWa-116" value="" style="endArrow=none;html=1;rounded=0;entryX=0.5;entryY=0;entryDx=0;entryDy=0;exitX=0.75;exitY=1;exitDx=0;exitDy=0;" edge="1" parent="1" source="IQqjwDVJrQSwNHj6loWa-1" target="IQqjwDVJrQSwNHj6loWa-115">
          <mxGeometry width="50" height="50" relative="1" as="geometry">
            <mxPoint x="770" y="420" as="sourcePoint" />
            <mxPoint x="851" y="474" as="targetPoint" />
          </mxGeometry>
        </mxCell>
        <mxCell id="IQqjwDVJrQSwNHj6loWa-135" value="&lt;h1&gt;&lt;font style=&quot;font-size: 24px;&quot;&gt;mapping&lt;/font&gt;&lt;/h1&gt;&lt;p&gt;&lt;font style=&quot;&quot;&gt;1. &lt;u style=&quot;&quot;&gt;&lt;b style=&quot;&quot;&gt;&lt;font style=&quot;font-size: 14px;&quot;&gt;Orchestra&lt;/font&gt;&lt;/b&gt;&lt;/u&gt;:&lt;/font&gt;&lt;/p&gt;&lt;p&gt;&lt;font size=&quot;3&quot; style=&quot;&quot;&gt;&amp;nbsp;&lt;font style=&quot;&quot;&gt; &amp;nbsp;- Attributes: [&lt;u&gt;orchestraID&lt;/u&gt; (PK), orchestraName].&lt;/font&gt;&lt;/font&gt;&lt;/p&gt;&lt;p&gt;&lt;font size=&quot;3&quot; style=&quot;&quot;&gt;2. &lt;b&gt;&lt;u&gt;Program&lt;/u&gt;&lt;/b&gt;&lt;/font&gt;&lt;/p&gt;&lt;p&gt;&lt;font size=&quot;3&quot; style=&quot;&quot;&gt;&amp;nbsp; &amp;nbsp;- Attributes: [&lt;u&gt;programID&lt;/u&gt; (PK), season, orchestraID (FK)].&lt;/font&gt;&lt;/p&gt;&lt;p&gt;&lt;font size=&quot;3&quot;&gt;3. &lt;u&gt;&lt;b&gt;Concert&lt;/b&gt;&lt;/u&gt;&lt;/font&gt;&lt;/p&gt;&lt;p&gt;&lt;font size=&quot;3&quot;&gt;&amp;nbsp; &amp;nbsp;- Attributes: [&lt;u&gt;concertID&lt;/u&gt; (PK), eventType, date, venue, location, time, programID (FK)].&lt;/font&gt;&lt;/p&gt;&lt;p&gt;&lt;font size=&quot;3&quot;&gt;4. &lt;b&gt;&lt;u&gt;Works&lt;/u&gt;&lt;/b&gt;&lt;/font&gt;&lt;/p&gt;&lt;p&gt;&lt;font size=&quot;3&quot;&gt;&amp;nbsp; &amp;nbsp;- Attributes: [&lt;u&gt;workID&lt;/u&gt; (PK), workTitle, composerName, conductorID, concertID (FK)].&lt;/font&gt;&lt;/p&gt;&lt;p&gt;&lt;font size=&quot;3&quot;&gt;5. &lt;u style=&quot;font-weight: bold;&quot;&gt;Soloist_work_person&lt;/u&gt;&amp;nbsp;(generated table from M:N)&lt;/font&gt;&lt;/p&gt;&lt;p&gt;&lt;font size=&quot;3&quot;&gt;&amp;nbsp; &amp;nbsp;- Attributes: [&lt;u&gt;soloistID&lt;/u&gt; (PK), workID (FK)].&lt;/font&gt;&lt;/p&gt;&lt;p&gt;&lt;font size=&quot;3&quot;&gt;6. &lt;u&gt;&lt;b&gt;Person&lt;/b&gt;&lt;/u&gt;&lt;/font&gt;&lt;/p&gt;&lt;p style=&quot;border-color: var(--border-color);&quot;&gt;&lt;font style=&quot;border-color: var(--border-color);&quot; size=&quot;3&quot;&gt;&amp;nbsp; &amp;nbsp;- Attributes: [&lt;u&gt;PersonID&lt;/u&gt; (PK), age, name, nationality, gender, phone].&lt;/font&gt;&lt;/p&gt;&lt;div&gt;&lt;font style=&quot;border-color: var(--border-color);&quot; size=&quot;3&quot;&gt;&lt;br&gt;&lt;/font&gt;&lt;/div&gt;" style="text;html=1;strokeColor=none;fillColor=none;spacing=5;spacingTop=-20;whiteSpace=wrap;overflow=hidden;rounded=0;" vertex="1" parent="1">
          <mxGeometry x="281" y="559" width="670" height="431" as="geometry" />
        </mxCell>
        <mxCell id="IQqjwDVJrQSwNHj6loWa-136" value="" style="curved=1;endArrow=classic;html=1;rounded=0;exitX=0.282;exitY=0.234;exitDx=0;exitDy=0;exitPerimeter=0;" edge="1" parent="1" source="IQqjwDVJrQSwNHj6loWa-135">
          <mxGeometry width="50" height="50" relative="1" as="geometry">
            <mxPoint x="530" y="710" as="sourcePoint" />
            <mxPoint x="670" y="710" as="targetPoint" />
            <Array as="points">
              <mxPoint x="680" y="670" />
            </Array>
          </mxGeometry>
        </mxCell>
        <mxCell id="IQqjwDVJrQSwNHj6loWa-137" value="" style="curved=1;endArrow=classic;html=1;rounded=0;entryX=0.819;entryY=0.49;entryDx=0;entryDy=0;entryPerimeter=0;exitX=0.267;exitY=0.374;exitDx=0;exitDy=0;exitPerimeter=0;" edge="1" parent="1" source="IQqjwDVJrQSwNHj6loWa-135" target="IQqjwDVJrQSwNHj6loWa-135">
          <mxGeometry width="50" height="50" relative="1" as="geometry">
            <mxPoint x="470" y="670" as="sourcePoint" />
            <mxPoint x="680" y="720" as="targetPoint" />
            <Array as="points">
              <mxPoint x="750" y="720" />
            </Array>
          </mxGeometry>
        </mxCell>
        <mxCell id="IQqjwDVJrQSwNHj6loWa-138" value="" style="curved=1;endArrow=classic;html=1;rounded=0;" edge="1" parent="1">
          <mxGeometry width="50" height="50" relative="1" as="geometry">
            <mxPoint x="460" y="780" as="sourcePoint" />
            <mxPoint x="790" y="830" as="targetPoint" />
            <Array as="points">
              <mxPoint x="770" y="810" />
              <mxPoint x="810" y="810" />
            </Array>
          </mxGeometry>
        </mxCell>
        <mxCell id="IQqjwDVJrQSwNHj6loWa-139" value="" style="curved=1;endArrow=classic;html=1;rounded=0;" edge="1" parent="1">
          <mxGeometry width="50" height="50" relative="1" as="geometry">
            <mxPoint x="430" y="840" as="sourcePoint" />
            <mxPoint x="530" y="890" as="targetPoint" />
            <Array as="points">
              <mxPoint x="590" y="860" />
              <mxPoint x="590" y="880" />
            </Array>
          </mxGeometry>
        </mxCell>
        <mxCell id="IQqjwDVJrQSwNHj6loWa-154" value="person" style="shape=table;startSize=30;container=1;collapsible=1;childLayout=tableLayout;fixedRows=1;rowLines=0;fontStyle=1;align=center;resizeLast=1;" vertex="1" collapsed="1" parent="1">
          <mxGeometry x="275" y="465" width="80" height="30" as="geometry">
            <mxRectangle x="520" y="440" width="250" height="70" as="alternateBounds" />
          </mxGeometry>
        </mxCell>
        <mxCell id="IQqjwDVJrQSwNHj6loWa-155" value="" style="shape=partialRectangle;collapsible=0;dropTarget=0;pointerEvents=0;fillColor=none;points=[[0,0.5],[1,0.5]];portConstraint=eastwest;top=0;left=0;right=0;bottom=1;" vertex="1" parent="IQqjwDVJrQSwNHj6loWa-154">
          <mxGeometry y="30" width="250" height="30" as="geometry" />
        </mxCell>
        <mxCell id="IQqjwDVJrQSwNHj6loWa-156" value="PK" style="shape=partialRectangle;overflow=hidden;connectable=0;fillColor=none;top=0;left=0;bottom=0;right=0;fontStyle=1;" vertex="1" parent="IQqjwDVJrQSwNHj6loWa-155">
          <mxGeometry width="30" height="30" as="geometry">
            <mxRectangle width="30" height="30" as="alternateBounds" />
          </mxGeometry>
        </mxCell>
        <mxCell id="IQqjwDVJrQSwNHj6loWa-157" value="soloistID" style="shape=partialRectangle;overflow=hidden;connectable=0;fillColor=none;top=0;left=0;bottom=0;right=0;align=left;spacingLeft=6;fontStyle=5;" vertex="1" parent="IQqjwDVJrQSwNHj6loWa-155">
          <mxGeometry x="30" width="220" height="30" as="geometry">
            <mxRectangle width="220" height="30" as="alternateBounds" />
          </mxGeometry>
        </mxCell>
        <mxCell id="IQqjwDVJrQSwNHj6loWa-158" value="age" style="ellipse;whiteSpace=wrap;html=1;" vertex="1" parent="1">
          <mxGeometry x="265" y="315" width="70" height="30" as="geometry" />
        </mxCell>
        <mxCell id="IQqjwDVJrQSwNHj6loWa-159" value="" style="endArrow=none;html=1;rounded=0;entryX=0.5;entryY=1;entryDx=0;entryDy=0;exitX=0.5;exitY=0;exitDx=0;exitDy=0;" edge="1" parent="1" source="IQqjwDVJrQSwNHj6loWa-154" target="IQqjwDVJrQSwNHj6loWa-158">
          <mxGeometry width="50" height="50" relative="1" as="geometry">
            <mxPoint x="288" y="415" as="sourcePoint" />
            <mxPoint x="215" y="370" as="targetPoint" />
          </mxGeometry>
        </mxCell>
        <mxCell id="IQqjwDVJrQSwNHj6loWa-160" value="&lt;u&gt;personID&lt;/u&gt;" style="ellipse;whiteSpace=wrap;html=1;" vertex="1" parent="1">
          <mxGeometry x="185" y="395" width="70" height="30" as="geometry" />
        </mxCell>
        <mxCell id="IQqjwDVJrQSwNHj6loWa-161" value="" style="endArrow=none;html=1;rounded=0;entryX=0.5;entryY=1;entryDx=0;entryDy=0;exitX=0;exitY=0;exitDx=0;exitDy=0;" edge="1" parent="1" source="IQqjwDVJrQSwNHj6loWa-154" target="IQqjwDVJrQSwNHj6loWa-160">
          <mxGeometry width="50" height="50" relative="1" as="geometry">
            <mxPoint x="253" y="415" as="sourcePoint" />
            <mxPoint x="135" y="360" as="targetPoint" />
          </mxGeometry>
        </mxCell>
        <mxCell id="IQqjwDVJrQSwNHj6loWa-162" value="name" style="ellipse;whiteSpace=wrap;html=1;" vertex="1" parent="1">
          <mxGeometry x="215" y="345" width="70" height="30" as="geometry" />
        </mxCell>
        <mxCell id="IQqjwDVJrQSwNHj6loWa-163" value="" style="endArrow=none;html=1;rounded=0;entryX=0.5;entryY=1;entryDx=0;entryDy=0;exitX=0.25;exitY=0;exitDx=0;exitDy=0;" edge="1" parent="1" source="IQqjwDVJrQSwNHj6loWa-154" target="IQqjwDVJrQSwNHj6loWa-162">
          <mxGeometry width="50" height="50" relative="1" as="geometry">
            <mxPoint x="270" y="415" as="sourcePoint" />
            <mxPoint x="225" y="380" as="targetPoint" />
          </mxGeometry>
        </mxCell>
        <mxCell id="IQqjwDVJrQSwNHj6loWa-164" value="phone" style="ellipse;whiteSpace=wrap;html=1;" vertex="1" parent="1">
          <mxGeometry x="350" y="420" width="70" height="30" as="geometry" />
        </mxCell>
        <mxCell id="IQqjwDVJrQSwNHj6loWa-165" value="" style="endArrow=none;html=1;rounded=0;entryX=0;entryY=1;entryDx=0;entryDy=0;exitX=1;exitY=0;exitDx=0;exitDy=0;" edge="1" parent="1" source="IQqjwDVJrQSwNHj6loWa-154" target="IQqjwDVJrQSwNHj6loWa-164">
          <mxGeometry width="50" height="50" relative="1" as="geometry">
            <mxPoint x="305" y="430" as="sourcePoint" />
            <mxPoint x="235" y="410" as="targetPoint" />
          </mxGeometry>
        </mxCell>
        <mxCell id="IQqjwDVJrQSwNHj6loWa-166" value="nationality" style="ellipse;whiteSpace=wrap;html=1;" vertex="1" parent="1">
          <mxGeometry x="305" y="345" width="70" height="30" as="geometry" />
        </mxCell>
        <mxCell id="IQqjwDVJrQSwNHj6loWa-167" value="" style="endArrow=none;html=1;rounded=0;entryX=0.5;entryY=1;entryDx=0;entryDy=0;exitX=0.75;exitY=0;exitDx=0;exitDy=0;" edge="1" parent="1" source="IQqjwDVJrQSwNHj6loWa-154" target="IQqjwDVJrQSwNHj6loWa-166">
          <mxGeometry width="50" height="50" relative="1" as="geometry">
            <mxPoint x="315" y="455" as="sourcePoint" />
            <mxPoint x="310" y="355" as="targetPoint" />
          </mxGeometry>
        </mxCell>
        <mxCell id="IQqjwDVJrQSwNHj6loWa-168" value="gender" style="ellipse;whiteSpace=wrap;html=1;" vertex="1" parent="1">
          <mxGeometry x="355" y="380" width="70" height="30" as="geometry" />
        </mxCell>
        <mxCell id="IQqjwDVJrQSwNHj6loWa-169" value="" style="endArrow=none;html=1;rounded=0;entryX=0;entryY=0.5;entryDx=0;entryDy=0;exitX=0.75;exitY=0;exitDx=0;exitDy=0;" edge="1" parent="1" source="IQqjwDVJrQSwNHj6loWa-154" target="IQqjwDVJrQSwNHj6loWa-168">
          <mxGeometry width="50" height="50" relative="1" as="geometry">
            <mxPoint x="365" y="475" as="sourcePoint" />
            <mxPoint x="370" y="455" as="targetPoint" />
          </mxGeometry>
        </mxCell>
        <mxCell id="IQqjwDVJrQSwNHj6loWa-171" value="" style="curved=1;endArrow=classic;html=1;rounded=0;exitX=0.252;exitY=0.814;exitDx=0;exitDy=0;exitPerimeter=0;entryX=0.252;entryY=0.93;entryDx=0;entryDy=0;entryPerimeter=0;" edge="1" parent="1" source="IQqjwDVJrQSwNHj6loWa-135" target="IQqjwDVJrQSwNHj6loWa-135">
          <mxGeometry width="50" height="50" relative="1" as="geometry">
            <mxPoint x="440" y="850" as="sourcePoint" />
            <mxPoint x="540" y="900" as="targetPoint" />
            <Array as="points">
              <mxPoint x="480" y="930" />
            </Array>
          </mxGeometry>
        </mxCell>
        <mxCell id="IQqjwDVJrQSwNHj6loWa-173" value="" style="edgeStyle=entityRelationEdgeStyle;endArrow=ERzeroToMany;startArrow=ERone;endFill=1;startFill=0;exitX=1;exitY=0.5;exitDx=0;exitDy=0;entryX=0;entryY=0.75;entryDx=0;entryDy=0;" edge="1" parent="1" source="IQqjwDVJrQSwNHj6loWa-154" target="IQqjwDVJrQSwNHj6loWa-1">
          <mxGeometry width="100" height="100" relative="1" as="geometry">
            <mxPoint x="610" y="475" as="sourcePoint" />
            <mxPoint x="700" y="400" as="targetPoint" />
            <Array as="points">
              <mxPoint x="690" y="440" />
              <mxPoint x="710" y="410" />
            </Array>
          </mxGeometry>
        </mxCell>
      </root>
    </mxGraphModel>
  </diagram>
</mxfile>
